<mxfile host="app.diagrams.net" modified="2021-03-03T09:08:25.622Z" agent="5.0 (Windows NT 10.0; WOW64) AppleWebKit/537.36 (KHTML, like Gecko) Chrome/88.0.4324.96 Safari/537.36" etag="z0DHxnZJvPEHwZkOeP1x" version="14.4.2" type="github">
  <diagram id="R2lEEEUBdFMjLlhIrx00" name="Page-1">
    <mxGraphModel dx="1790" dy="870" grid="1" gridSize="10" guides="1" tooltips="1" connect="1" arrows="1" fold="1" page="1" pageScale="1" pageWidth="850" pageHeight="1100" math="0" shadow="0" extFonts="Permanent Marker^https://fonts.googleapis.com/css?family=Permanent+Marker">
      <root>
        <mxCell id="0" />
        <mxCell id="1" parent="0" />
        <mxCell id="fdTC0X4Nxif4Oo2Fp6-Q-11" style="edgeStyle=orthogonalEdgeStyle;rounded=0;orthogonalLoop=1;jettySize=auto;html=1;entryX=0.5;entryY=1;entryDx=0;entryDy=0;" edge="1" parent="1" source="fdTC0X4Nxif4Oo2Fp6-Q-1" target="fdTC0X4Nxif4Oo2Fp6-Q-7">
          <mxGeometry relative="1" as="geometry" />
        </mxCell>
        <mxCell id="fdTC0X4Nxif4Oo2Fp6-Q-1" value="科目" style="swimlane;childLayout=stackLayout;horizontal=1;startSize=30;horizontalStack=0;rounded=1;fontSize=14;fontStyle=0;strokeWidth=2;resizeParent=0;resizeLast=1;shadow=0;dashed=0;align=center;" vertex="1" parent="1">
          <mxGeometry x="320" y="250" width="160" height="120" as="geometry" />
        </mxCell>
        <mxCell id="fdTC0X4Nxif4Oo2Fp6-Q-2" value="+Attribute1&#xa;" style="align=left;strokeColor=none;fillColor=none;spacingLeft=4;fontSize=12;verticalAlign=top;resizable=0;rotatable=0;part=1;" vertex="1" parent="fdTC0X4Nxif4Oo2Fp6-Q-1">
          <mxGeometry y="30" width="160" height="90" as="geometry" />
        </mxCell>
        <mxCell id="fdTC0X4Nxif4Oo2Fp6-Q-12" style="edgeStyle=orthogonalEdgeStyle;rounded=0;orthogonalLoop=1;jettySize=auto;html=1;entryX=0.5;entryY=1;entryDx=0;entryDy=0;" edge="1" parent="1" source="fdTC0X4Nxif4Oo2Fp6-Q-3" target="fdTC0X4Nxif4Oo2Fp6-Q-9">
          <mxGeometry relative="1" as="geometry" />
        </mxCell>
        <mxCell id="fdTC0X4Nxif4Oo2Fp6-Q-3" value="课程" style="swimlane;childLayout=stackLayout;horizontal=1;startSize=30;horizontalStack=0;rounded=1;fontSize=14;fontStyle=0;strokeWidth=2;resizeParent=0;resizeLast=1;shadow=0;dashed=0;align=center;" vertex="1" parent="1">
          <mxGeometry x="605" y="250" width="160" height="120" as="geometry" />
        </mxCell>
        <mxCell id="fdTC0X4Nxif4Oo2Fp6-Q-4" value="+Attribute1&#xa;" style="align=left;strokeColor=none;fillColor=none;spacingLeft=4;fontSize=12;verticalAlign=top;resizable=0;rotatable=0;part=1;" vertex="1" parent="fdTC0X4Nxif4Oo2Fp6-Q-3">
          <mxGeometry y="30" width="160" height="90" as="geometry" />
        </mxCell>
        <mxCell id="fdTC0X4Nxif4Oo2Fp6-Q-6" value="价格" style="swimlane;childLayout=stackLayout;horizontal=1;startSize=30;horizontalStack=0;rounded=1;fontSize=14;fontStyle=0;strokeWidth=2;resizeParent=0;resizeLast=1;shadow=0;dashed=0;align=center;" vertex="1" parent="1">
          <mxGeometry x="320" y="50" width="160" height="120" as="geometry" />
        </mxCell>
        <mxCell id="fdTC0X4Nxif4Oo2Fp6-Q-7" value="&#xa;&#xa;cloneable" style="align=left;strokeColor=none;fillColor=none;spacingLeft=4;fontSize=12;verticalAlign=top;resizable=0;rotatable=0;part=1;" vertex="1" parent="fdTC0X4Nxif4Oo2Fp6-Q-6">
          <mxGeometry y="30" width="160" height="90" as="geometry" />
        </mxCell>
        <mxCell id="fdTC0X4Nxif4Oo2Fp6-Q-8" value="价格" style="swimlane;childLayout=stackLayout;horizontal=1;startSize=30;horizontalStack=0;rounded=1;fontSize=14;fontStyle=0;strokeWidth=2;resizeParent=0;resizeLast=1;shadow=0;dashed=0;align=center;arcSize=0;" vertex="1" parent="1">
          <mxGeometry x="605" y="50" width="160" height="120" as="geometry" />
        </mxCell>
        <mxCell id="fdTC0X4Nxif4Oo2Fp6-Q-9" value="+Attribute1&#xa;+Attribute2&#xa;+Attribute3&#xa;4 ，3， 2" style="align=left;strokeColor=none;fillColor=none;spacingLeft=4;fontSize=12;verticalAlign=top;resizable=0;rotatable=0;part=1;" vertex="1" parent="fdTC0X4Nxif4Oo2Fp6-Q-8">
          <mxGeometry y="30" width="160" height="90" as="geometry" />
        </mxCell>
        <mxCell id="fdTC0X4Nxif4Oo2Fp6-Q-10" style="edgeStyle=orthogonalEdgeStyle;rounded=0;orthogonalLoop=1;jettySize=auto;html=1;entryX=0;entryY=0.5;entryDx=0;entryDy=0;" edge="1" parent="1" source="fdTC0X4Nxif4Oo2Fp6-Q-2" target="fdTC0X4Nxif4Oo2Fp6-Q-4">
          <mxGeometry relative="1" as="geometry" />
        </mxCell>
        <mxCell id="fdTC0X4Nxif4Oo2Fp6-Q-13" value="价格收费体系" style="swimlane;childLayout=stackLayout;horizontal=1;startSize=30;horizontalStack=0;rounded=1;fontSize=14;fontStyle=0;strokeWidth=2;resizeParent=0;resizeLast=1;shadow=0;dashed=0;align=center;" vertex="1" parent="1">
          <mxGeometry x="60" y="250" width="160" height="120" as="geometry" />
        </mxCell>
        <mxCell id="fdTC0X4Nxif4Oo2Fp6-Q-14" value="第几次调价&#xa;" style="align=left;strokeColor=none;fillColor=none;spacingLeft=4;fontSize=12;verticalAlign=top;resizable=0;rotatable=0;part=1;" vertex="1" parent="fdTC0X4Nxif4Oo2Fp6-Q-13">
          <mxGeometry y="30" width="160" height="90" as="geometry" />
        </mxCell>
        <mxCell id="fdTC0X4Nxif4Oo2Fp6-Q-28" value="会员" style="swimlane;childLayout=stackLayout;horizontal=1;startSize=30;horizontalStack=0;rounded=1;fontSize=14;fontStyle=0;strokeWidth=2;resizeParent=0;resizeLast=1;shadow=0;dashed=0;align=center;" vertex="1" parent="1">
          <mxGeometry x="320" y="470" width="160" height="120" as="geometry" />
        </mxCell>
        <mxCell id="fdTC0X4Nxif4Oo2Fp6-Q-29" value="手机号 必填，本表唯一" style="align=left;strokeColor=none;fillColor=none;spacingLeft=4;fontSize=12;verticalAlign=top;resizable=0;rotatable=0;part=1;" vertex="1" parent="fdTC0X4Nxif4Oo2Fp6-Q-28">
          <mxGeometry y="30" width="160" height="90" as="geometry" />
        </mxCell>
        <mxCell id="fdTC0X4Nxif4Oo2Fp6-Q-30" value="学员" style="swimlane;childLayout=stackLayout;horizontal=1;startSize=30;horizontalStack=0;rounded=1;fontSize=14;fontStyle=0;strokeWidth=2;resizeParent=0;resizeLast=1;shadow=0;dashed=0;align=center;" vertex="1" parent="1">
          <mxGeometry x="60" y="470" width="160" height="120" as="geometry" />
        </mxCell>
        <mxCell id="fdTC0X4Nxif4Oo2Fp6-Q-31" value="姓名" style="align=left;strokeColor=none;fillColor=none;spacingLeft=4;fontSize=12;verticalAlign=top;resizable=0;rotatable=0;part=1;" vertex="1" parent="fdTC0X4Nxif4Oo2Fp6-Q-30">
          <mxGeometry y="30" width="160" height="90" as="geometry" />
        </mxCell>
        <mxCell id="fdTC0X4Nxif4Oo2Fp6-Q-32" value="会员联系人" style="swimlane;childLayout=stackLayout;horizontal=1;startSize=30;horizontalStack=0;rounded=1;fontSize=14;fontStyle=0;strokeWidth=2;resizeParent=0;resizeLast=1;shadow=0;dashed=0;align=center;" vertex="1" parent="1">
          <mxGeometry x="605" y="470" width="160" height="120" as="geometry" />
        </mxCell>
        <mxCell id="fdTC0X4Nxif4Oo2Fp6-Q-33" value="可以控制" style="align=left;strokeColor=none;fillColor=none;spacingLeft=4;fontSize=12;verticalAlign=top;resizable=0;rotatable=0;part=1;" vertex="1" parent="fdTC0X4Nxif4Oo2Fp6-Q-32">
          <mxGeometry y="30" width="160" height="90" as="geometry" />
        </mxCell>
        <mxCell id="fdTC0X4Nxif4Oo2Fp6-Q-34" style="edgeStyle=orthogonalEdgeStyle;rounded=0;orthogonalLoop=1;jettySize=auto;html=1;entryX=0;entryY=0.5;entryDx=0;entryDy=0;" edge="1" parent="1" source="fdTC0X4Nxif4Oo2Fp6-Q-29" target="fdTC0X4Nxif4Oo2Fp6-Q-33">
          <mxGeometry relative="1" as="geometry" />
        </mxCell>
        <mxCell id="fdTC0X4Nxif4Oo2Fp6-Q-35" style="edgeStyle=orthogonalEdgeStyle;rounded=0;orthogonalLoop=1;jettySize=auto;html=1;" edge="1" parent="1" source="fdTC0X4Nxif4Oo2Fp6-Q-29" target="fdTC0X4Nxif4Oo2Fp6-Q-31">
          <mxGeometry relative="1" as="geometry" />
        </mxCell>
        <mxCell id="fdTC0X4Nxif4Oo2Fp6-Q-39" style="edgeStyle=orthogonalEdgeStyle;rounded=0;orthogonalLoop=1;jettySize=auto;html=1;entryX=0;entryY=0.5;entryDx=0;entryDy=0;" edge="1" parent="1" source="fdTC0X4Nxif4Oo2Fp6-Q-36" target="fdTC0X4Nxif4Oo2Fp6-Q-38">
          <mxGeometry relative="1" as="geometry" />
        </mxCell>
        <mxCell id="fdTC0X4Nxif4Oo2Fp6-Q-36" value="公司" style="swimlane;childLayout=stackLayout;horizontal=1;startSize=30;horizontalStack=0;rounded=1;fontSize=14;fontStyle=0;strokeWidth=2;resizeParent=0;resizeLast=1;shadow=0;dashed=0;align=center;" vertex="1" parent="1">
          <mxGeometry x="42.5" y="850" width="160" height="120" as="geometry" />
        </mxCell>
        <mxCell id="fdTC0X4Nxif4Oo2Fp6-Q-42" style="edgeStyle=orthogonalEdgeStyle;rounded=0;orthogonalLoop=1;jettySize=auto;html=1;entryX=0;entryY=0.5;entryDx=0;entryDy=0;" edge="1" parent="1" source="fdTC0X4Nxif4Oo2Fp6-Q-38" target="fdTC0X4Nxif4Oo2Fp6-Q-40">
          <mxGeometry relative="1" as="geometry" />
        </mxCell>
        <mxCell id="fdTC0X4Nxif4Oo2Fp6-Q-38" value="门店" style="swimlane;childLayout=stackLayout;horizontal=1;startSize=30;horizontalStack=0;rounded=1;fontSize=14;fontStyle=0;strokeWidth=2;resizeParent=0;resizeLast=1;shadow=0;dashed=0;align=center;" vertex="1" parent="1">
          <mxGeometry x="312.5" y="850" width="160" height="120" as="geometry" />
        </mxCell>
        <mxCell id="fdTC0X4Nxif4Oo2Fp6-Q-40" value="机器" style="swimlane;childLayout=stackLayout;horizontal=1;startSize=30;horizontalStack=0;rounded=1;fontSize=14;fontStyle=0;strokeWidth=2;resizeParent=0;resizeLast=1;shadow=0;dashed=0;align=center;" vertex="1" parent="1">
          <mxGeometry x="597.5" y="850" width="160" height="120" as="geometry" />
        </mxCell>
      </root>
    </mxGraphModel>
  </diagram>
</mxfile>
